<svg xmlns="http://www.w3.org/2000/svg" xmlns:xlink="http://www.w3.org/1999/xlink" width="169.267" height="62.152" viewBox="0 0 169.267 62.152">
  <g id="组_463" data-name="组 463" transform="translate(0 0)">
    <g id="组_458" data-name="组 458">
      <path id="路径_1682" data-name="路径 1682" d="M-1103.156,6040.97a5.033,5.033,0,0,0-3.558-1.479,5.115,5.115,0,0,0-5.107,5.112v29.118a5.116,5.116,0,0,0,5.106,5.113h0a5.034,5.034,0,0,0,3.558-1.479l4.272-4.236v-27.913Zm4.12,28.771-5.878,5.828a2.586,2.586,0,0,1-4.406-1.848V6044.6a2.587,2.587,0,0,1,4.406-1.848l5.878,5.828Z" transform="translate(1111.821 -6028.087)" fill="#F15A24"/>
      <path id="路径_1683" data-name="路径 1683" d="M-1047.639,6026.016h-36.225a12.89,12.89,0,0,0-12.852,12.9v4.222h0v27.913h0v4.221a12.89,12.89,0,0,0,12.852,12.9h36.225a12.89,12.89,0,0,0,12.852-12.9v-36.356A12.89,12.89,0,0,0-1047.639,6026.016Zm10.35,49.254a10.369,10.369,0,0,1-10.35,10.388h-36.225a10.369,10.369,0,0,1-10.351-10.388v-36.356a10.369,10.369,0,0,1,10.351-10.388h36.225a10.369,10.369,0,0,1,10.35,10.388Z" transform="translate(1109.5 -6026.016)" fill="#F15A24"/>
      <line id="直线_10" data-name="直线 10" y1="1.804" x2="0.482" transform="translate(32.611 30.174)" fill="#F15A24"/>
      <path id="路径_1684" data-name="路径 1684" d="M-1041.246,6040.229Z" transform="translate(1100.976 -6028.2)" fill="#F15A24"/>
      <path id="路径_1685" data-name="路径 1685" d="M-1063.355,6044.922h0l-1.6.438-6.9,1.887-1.552,5.814,13.672-1.853,7.334-.994,6.216-9.984Z" transform="translate(1105.919 -6028.2)" fill="#F15A24"/>
      <path id="路径_1686" data-name="路径 1686" d="M-1059.739,6053.2l-13.672,1.853,10.178,3.85,6.228-.95Z" transform="translate(1105.919 -6030.193)" fill="#F15A24"/>
      <path id="路径_1687" data-name="路径 1687" d="M-1079.012,6082.548l14.076-14.822-11.132,3.8Z" transform="translate(1106.78 -6032.425)" fill="#F15A24"/>
      <path id="路径_1688" data-name="路径 1688" d="M-1057.227,6058.8l-.1.016-6.228.95-9.593,1.463-2.382,8.922,11.132-3.8,9.605-3.274Z" transform="translate(1106.245 -6031.054)" fill="#F15A24"/>
    </g>
    <g id="组_460" data-name="组 460" transform="translate(83.849 22.054)">
      <path id="路径_1689" data-name="路径 1689" d="M-970.967,6057.215Z" transform="translate(1006.328 -6052.864)" fill="#F15A24"/>
      <path id="路径_1690" data-name="路径 1690" d="M-1001.882,6057.187h-4.255l.032-.186a2.618,2.618,0,0,1,2.426-1.919h7.051l.529-3.008h-9.15a5.4,5.4,0,0,0-5.1,4.351l-.134.762h0l-.529,3.007h0l-1.738,9.889h4.345l1.635-9.306.1-.583h9.14l.528-3.007Z" transform="translate(1012.748 -6052.074)" fill="#F15A24"/>
      <path id="路径_1691" data-name="路径 1691" d="M-929.746,6052.074l-3.17,18.044h4.345l3.17-18.044Z" transform="translate(1000.481 -6052.074)" fill="#F15A24"/>
      <path id="路径_1692" data-name="路径 1692" d="M-958.772,6057.187l.134-.761h0a3.547,3.547,0,0,0-3.571-4.351h-12.146l-.528,3.008h10.038a1.715,1.715,0,0,1,1.727,2.1h-9.3a5.4,5.4,0,0,0-5.1,4.352h0l-.743,4.229h0a3.549,3.549,0,0,0,3.572,4.353h13.644l.528-3.009,1.215-6.917Zm-4.976,3.59-1.113,6.334h-7.2a1.689,1.689,0,0,1-1.691-1.23h.009a1.967,1.967,0,0,1-.037-.874l.476-2.707a2.43,2.43,0,0,1,.344-.873h-.009a2.6,2.6,0,0,1,2.123-1.231h7.2Z" transform="translate(1007.459 -6052.074)" fill="#F15A24"/>
      <path id="路径_1693" data-name="路径 1693" d="M-987.917,6067.11a1.7,1.7,0,0,1-1.751-1.919l.664-3.782,1.64-9.335h-4.345l-2.406,13.692a3.548,3.548,0,0,0,3.571,4.352h7.65l.529-3.009h-5.553Z" transform="translate(1009.895 -6052.074)" fill="#F15A24"/>
      <g id="组_459" data-name="组 459" transform="translate(47.937)">
        <path id="路径_1694" data-name="路径 1694" d="M-949.412,6064.511h0Z" transform="translate(955.078 -6053.985)" fill="#F15A24"/>
        <path id="路径_1695" data-name="路径 1695" d="M-940.614,6059.593h-7.2a1.716,1.716,0,0,1-1.727-2.105l.053-.3a2.613,2.613,0,0,1,2.467-2.1h10.038l.528-3.008H-948.6a5.4,5.4,0,0,0-5.1,4.351l-.321,1.824a3.548,3.548,0,0,0,3.572,4.352h7.2a1.716,1.716,0,0,1,1.728,2.1l-.053.3a2.612,2.612,0,0,1-2.467,2.1h-11.536l-.529,3.009h13.644a5.4,5.4,0,0,0,5.1-4.353l.321-1.822A3.548,3.548,0,0,0-940.614,6059.593Z" transform="translate(956.107 -6052.074)" fill="#F15A24"/>
      </g>
      <path id="路径_1696" data-name="路径 1696" d="M-918.446,6052.074l-1.321,7.519h-3.9a2.613,2.613,0,0,0-2.467,2.1l-.158.9-.37,2.1a2.613,2.613,0,0,1,2.467-2.1h1.8a1.716,1.716,0,0,1,1.728,2.1l.37-2.1h0l-1.321,7.519h4.345l3.17-18.045Z" transform="translate(999.519 -6052.074)" fill="#F15A24"/>
    </g>
  </g>
</svg>
