<svg id="Layer_1" data-name="Layer 1" xmlns="http://www.w3.org/2000/svg" viewBox="0 0 837.57 260.58"><defs><style>.cls-1{fill:#F15A24;}</style></defs><path class="cls-1" d="M49,207.92H8.37V52.08H49Z"/><path class="cls-1" d="M253.11,207.92H212.79V91.37L164,181.3,115.1,91.37V207.92H74.79V52.08h49.88l40.83,76.76,42.64-76.76h45Z"/><path class="cls-1" d="M431.43,207.92H317.72a65.3,65.3,0,0,1-18.61-2.33,26.36,26.36,0,0,1-12.54-7.75,34.49,34.49,0,0,1-7.1-14.34q-2.33-8.92-2.33-22.36v-16a93.83,93.83,0,0,1,2.2-22.1,33.34,33.34,0,0,1,7-14.34,26.28,26.28,0,0,1,12.53-7.75,66.39,66.39,0,0,1,18.87-2.33h72.87V91.37q0-15.77-14.21-15.77H282.05V52.08H391.11a65,65,0,0,1,18.74,2.33,26.35,26.35,0,0,1,12.4,7.75,33.32,33.32,0,0,1,7,14.35,94.21,94.21,0,0,1,2.2,22.09ZM390.59,184.4V122.12H331.41q-13.7,0-13.69,13.18v37.47q0,11.64,13.43,11.63Z"/><path class="cls-1" d="M610.52,206.37a92.53,92.53,0,0,1-2.2,21.84,32.57,32.57,0,0,1-7.1,14.34,28.24,28.24,0,0,1-12.54,7.88A61.64,61.64,0,0,1,570,252.89H470.71V229.11H557q12.65,0,12.66-12.66v-8.53H496.55q-22.23,0-31.27-9.56t-9-31V93.17a76.36,76.36,0,0,1,1.94-18.34A29.53,29.53,0,0,1,464.63,62a27.11,27.11,0,0,1,12.15-7.49q7.62-2.46,19.25-2.46H610.52ZM569.69,75.6H509.47q-12.93,0-12.92,12.66v83.22q0,12.93,12.92,12.92h60.22Z"/><path class="cls-1" d="M635.33,94.47a76.51,76.51,0,0,1,2.2-19.77,30.07,30.07,0,0,1,7-13.18,27.07,27.07,0,0,1,12.41-7.24,68.71,68.71,0,0,1,18.74-2.2H749a68.76,68.76,0,0,1,18.74,2.2,27.91,27.91,0,0,1,12.53,7.24,29.54,29.54,0,0,1,7.11,13.18,77,77,0,0,1,2.2,19.77v70.81a77.06,77.06,0,0,1-2.2,19.77,29.54,29.54,0,0,1-7.11,13.18,28.85,28.85,0,0,1-12.53,7.36A65,65,0,0,1,749,207.92H675.65a65,65,0,0,1-18.74-2.33,28,28,0,0,1-12.41-7.36,30.07,30.07,0,0,1-7-13.18,76.62,76.62,0,0,1-2.2-19.77ZM749,88.26q0-12.66-12.66-12.66H688.57q-12.93,0-12.92,12.66v83.22q0,12.93,12.92,12.92h47.81q12.66,0,12.66-12.92Z"/><path class="cls-1" d="M801.89,24.25h-3.54v-1.9h9.38v1.9h-3.57V34.77h-2.27Z"/><path class="cls-1" d="M819.62,29.71c-.07-1.61-.17-3.54-.15-5.22h-.05c-.41,1.51-.92,3.19-1.48,4.76l-1.8,5.38h-1.75l-1.66-5.31c-.48-1.59-.92-3.28-1.25-4.83h0c-.06,1.62-.13,3.59-.22,5.29l-.28,5h-2.12l.83-12.42h3l1.62,5c.44,1.45.83,2.93,1.14,4.31h.06c.33-1.35.75-2.88,1.23-4.33l1.71-5h3l.72,12.42h-2.21Z"/><path class="cls-1" d="M810.21,48.62a20.06,20.06,0,1,1,20.06-20.06A20.08,20.08,0,0,1,810.21,48.62Zm0-37.34a17.29,17.29,0,1,0,17.28,17.28A17.3,17.3,0,0,0,810.21,11.28Z"/></svg>